<!DOCTYPE svg PUBLIC "-//W3C//DTD SVG 20010904//EN" "http://www.w3.org/TR/2001/REC-SVG-20010904/DTD/svg10.dtd">
<svg version="1.0" xmlns="http://www.w3.org/2000/svg" width="200px" height="200px" viewBox="0 0 2000 2000" preserveAspectRatio="xMidYMid meet">
<g id="layer101" fill="#139188" stroke="none">
<path d="M870 1876 l0 -36 55 0 c30 0 55 -4 55 -9 0 -4 -19 -8 -42 -8 -65 0 -81 -26 -76 -131 4 -106 9 -110 129 -111 l89 0 0 143 c0 177 0 177 -125 184 l-85 5 0 -37z m110 -176 c0 -27 -4 -50 -10 -50 -5 0 -10 23 -10 50 0 28 5 50 10 50 6 0 10 -22 10 -50z"/>
<path d="M1320 1446 c-8 -8 -66 -35 -129 -60 -85 -34 -118 -43 -132 -36 -30 17 -59 11 -86 -17 l-27 -26 -237 6 c-237 7 -238 7 -263 32 -69 69 -155 -23 -94 -100 19 -24 23 -47 31 -166 8 -122 7 -140 -7 -154 -24 -25 -21 -81 6 -99 12 -9 29 -16 38 -16 10 0 35 -47 73 -131 53 -121 56 -132 42 -152 -33 -47 -13 -103 41 -113 49 -9 258 -202 261 -242 4 -52 59 -68 96 -28 31 34 260 95 288 78 28 -18 74 -15 99 6 24 19 30 60 17 99 -7 18 5 36 68 107 54 60 83 86 99 86 13 0 30 8 39 18 20 21 22 73 5 90 -8 8 -7 49 7 167 15 134 20 155 35 155 24 0 41 23 42 57 1 33 -26 80 -49 85 -16 3 -133 246 -133 276 0 9 -11 34 -25 55 -21 30 -32 37 -58 37 -18 0 -39 -6 -47 -14z m-10 -122 c11 -36 9 -55 -15 -158 -22 -92 -31 -116 -45 -116 -22 0 -150 191 -150 224 0 21 12 29 98 63 53 22 98 37 98 34 1 -3 7 -24 14 -47z m161 -135 c57 -122 57 -120 -55 -162 l-69 -27 -16 23 c-9 12 -15 24 -15 27 1 3 14 58 29 122 26 114 35 130 69 124 5 -1 31 -49 57 -107z m-504 70 c17 -17 -193 -268 -223 -268 -19 -1 -123 103 -258 257 l-19 22 244 0 c170 0 248 -3 256 -11z m-398 -171 c75 -82 117 -136 112 -141 -5 -5 -51 -16 -100 -24 -82 -13 -93 -13 -107 1 -8 9 -19 16 -24 16 -9 0 -15 48 -26 193 -5 74 -3 87 9 87 9 0 70 -59 136 -132z m564 29 c63 -97 77 -127 60 -127 -5 0 -91 -11 -192 -23 -143 -18 -184 -21 -188 -11 -3 7 42 69 99 138 133 161 130 161 221 23z m376 -310 c-9 -82 -19 -150 -22 -153 -2 -3 -39 54 -82 127 -93 157 -92 161 18 200 l72 26 16 -26 c14 -24 14 -39 -2 -174z m-299 124 c0 -5 -41 -69 -91 -141 -87 -125 -93 -131 -122 -128 -28 3 -41 17 -109 113 -42 61 -74 113 -70 117 7 7 291 45 355 47 20 0 37 -3 37 -8z m149 -169 c82 -141 94 -169 65 -158 -9 3 -92 6 -186 6 -157 0 -170 1 -166 18 8 29 182 272 194 272 7 0 49 -62 93 -138z m-675 102 c18 -25 18 -27 -30 -169 -27 -80 -52 -141 -55 -137 -4 4 -32 63 -63 132 -73 162 -71 174 22 188 100 14 105 13 126 -14z m174 -125 c91 -132 92 -131 -74 -186 -100 -33 -126 -39 -131 -28 -5 14 14 79 69 233 23 62 34 82 48 82 12 0 43 -35 88 -101z m581 -185 c1 -1 -34 -45 -79 -97 -111 -130 -115 -130 -214 -11 -42 51 -76 100 -76 109 0 15 16 16 183 10 100 -4 184 -9 186 -11z m-509 -28 c11 -21 8 -43 -21 -159 l-33 -136 -69 62 c-37 34 -86 78 -109 98 -61 53 -51 66 89 116 65 23 121 42 124 42 3 1 11 -10 19 -23z m179 -111 c45 -52 81 -103 81 -114 0 -16 -11 -24 -52 -35 -165 -46 -202 -55 -208 -51 -4 3 4 51 17 107 38 164 42 176 61 181 9 3 18 5 19 6 1 0 38 -42 82 -94z"/>
</g>
<g id="layer102" fill="#26a6bc" stroke="none">
<path d="M870 1876 l0 -36 55 0 c30 0 55 -4 55 -9 0 -4 -19 -8 -42 -8 -65 0 -81 -26 -76 -131 4 -106 9 -110 129 -111 l89 0 0 138 c0 180 -2 183 -123 189 l-87 5 0 -37z m110 -176 c0 -27 -4 -50 -10 -50 -5 0 -10 23 -10 50 0 28 5 50 10 50 6 0 10 -22 10 -50z"/>
<path d="M100 1675 l0 -165 100 0 c127 0 140 9 140 104 0 49 -5 69 -20 89 l-21 26 26 50 c14 28 25 53 25 56 0 3 -23 5 -50 5 l-51 0 -24 -52 -25 -53 0 53 0 52 -50 0 -50 0 0 -165z m138 -58 c3 -32 0 -37 -17 -37 -18 0 -21 6 -21 41 0 33 3 40 18 37 12 -2 18 -14 20 -41z"/>
<path d="M530 1675 l0 -165 50 0 50 0 0 130 0 130 50 0 50 0 0 35 0 35 -100 0 -100 0 0 -165z"/>
<path d="M740 1710 l0 -130 50 0 50 0 0 130 0 130 -50 0 -50 0 0 -130z"/>
<path d="M1110 1665 l0 -175 45 0 45 0 0 49 0 49 39 -5 c21 -3 48 0 60 6 20 11 21 19 21 131 l0 120 -45 0 -45 0 0 -96 c0 -72 -3 -95 -12 -92 -9 3 -14 34 -16 96 l-3 92 -44 0 -45 0 0 -175z"/>
<path d="M1380 1820 c-16 -16 -20 -33 -20 -95 0 -60 -3 -75 -15 -75 -10 0 -15 -11 -15 -35 0 -24 5 -35 15 -35 9 0 15 -9 15 -25 0 -23 3 -25 50 -25 47 0 50 2 50 25 0 16 6 25 15 25 10 0 15 11 15 35 0 24 -5 35 -15 35 -12 0 -15 13 -15 60 0 47 3 60 15 60 10 0 15 11 15 35 0 35 0 35 -45 35 -32 0 -51 -6 -65 -20z"/>
<path d="M1522 1824 c-20 -14 -22 -23 -22 -114 0 -121 8 -130 112 -130 91 0 108 16 108 100 l0 60 -65 0 c-51 0 -65 3 -65 15 0 8 9 15 20 15 11 0 20 -4 20 -10 0 -5 20 -10 45 -10 41 0 45 2 45 25 0 46 -32 65 -108 65 -45 0 -75 -5 -90 -16z m108 -159 c0 -8 -9 -15 -20 -15 -11 0 -20 7 -20 15 0 8 9 15 20 15 11 0 20 -7 20 -15z"/>
<path d="M1740 1710 l0 -130 45 0 c28 0 45 4 45 12 0 9 3 9 12 0 7 -7 22 -12 35 -12 20 0 23 5 23 39 0 36 -3 40 -27 43 -28 3 -28 3 -31 91 l-3 87 -49 0 -50 0 0 -130z"/>
<path d="M350 1685 l0 -35 80 0 80 0 0 35 0 35 -80 0 -80 0 0 -35z"/>
<path d="M740 1525 l0 -35 50 0 50 0 0 35 0 35 -50 0 -50 0 0 -35z"/>
<path d="M1323 1447 c-4 -7 -61 -33 -127 -59 -89 -35 -123 -45 -137 -38 -30 17 -59 11 -86 -17 l-27 -26 -237 6 c-237 7 -238 7 -263 32 -30 30 -69 32 -96 5 -21 -21 -26 -65 -10 -90 8 -12 10 -9 10 13 0 26 30 67 50 67 24 0 59 -25 62 -44 3 -21 7 -21 247 -24 156 -1 249 -6 257 -13 19 -15 -191 -268 -222 -268 -20 -1 -41 20 -256 254 -17 18 -19 18 -34 3 -15 -15 -7 -27 110 -154 83 -89 123 -141 117 -147 -5 -5 -50 -16 -100 -24 -85 -13 -92 -13 -115 4 -27 19 -30 34 -42 205 -5 75 -8 88 -26 94 -11 3 -21 4 -22 2 -2 -1 1 -67 7 -145 8 -126 7 -144 -7 -158 -24 -25 -21 -81 6 -99 12 -9 29 -16 38 -16 10 0 35 -47 73 -131 53 -121 56 -132 42 -152 -33 -47 -13 -103 42 -113 25 -5 56 -26 107 -73 39 -37 90 -84 112 -105 29 -25 41 -45 41 -63 1 -52 59 -69 96 -29 31 34 260 95 288 78 10 -7 30 -12 45 -12 60 0 93 47 73 107 -10 33 -10 34 66 118 53 58 85 85 100 85 12 0 29 8 38 18 20 21 22 73 5 90 -8 8 -7 49 7 167 15 134 20 155 35 155 56 0 55 111 -2 137 -12 5 -42 57 -77 130 -31 67 -60 125 -64 129 -3 4 -11 -4 -17 -18 -10 -21 -4 -39 39 -134 59 -128 60 -125 -53 -167 l-68 -26 -17 21 c-17 20 -16 27 10 137 34 140 34 137 8 144 -24 6 -20 15 -54 -135 -22 -96 -30 -118 -44 -118 -23 0 -151 191 -151 224 0 21 12 28 93 60 50 21 101 47 112 60 31 36 60 48 89 36 28 -10 34 -2 14 18 -16 16 -75 15 -85 -1z m-190 -330 c63 -97 77 -127 60 -127 -5 0 -91 -11 -192 -23 -147 -19 -184 -21 -188 -10 -3 7 42 69 99 137 133 161 130 160 221 23z m376 -310 c-9 -82 -19 -150 -22 -153 -2 -3 -39 54 -82 127 -93 157 -92 161 18 200 l72 26 16 -26 c14 -24 14 -39 -2 -174z m-299 124 c0 -5 -41 -69 -91 -141 -87 -125 -93 -131 -122 -128 -28 3 -41 17 -109 113 -42 61 -74 113 -70 117 8 7 293 45 355 47 20 1 37 -3 37 -8z m149 -169 c82 -141 94 -169 65 -158 -9 3 -92 6 -186 6 -157 0 -170 1 -166 18 8 29 182 272 194 272 7 0 49 -62 93 -138z m-675 101 c19 -25 19 -26 -30 -169 -27 -79 -52 -140 -55 -136 -4 4 -32 63 -63 132 -73 162 -71 174 22 188 100 14 105 14 126 -15z m174 -124 c91 -132 92 -131 -73 -186 -74 -24 -127 -37 -132 -32 -8 8 27 127 83 277 24 65 42 57 122 -59z m174 -106 c22 -20 23 -70 1 -95 -36 -40 -113 -8 -113 47 0 54 71 85 112 48z m407 -79 c1 -1 -34 -45 -79 -97 -111 -130 -115 -130 -214 -11 -42 51 -76 100 -76 109 0 15 16 16 183 10 100 -4 184 -9 186 -11z m-509 -28 c11 -21 8 -43 -21 -159 l-33 -136 -55 50 c-160 140 -164 145 -157 165 4 14 38 30 123 61 65 23 121 42 124 42 3 1 11 -10 19 -23z m184 -116 c42 -49 76 -99 76 -109 0 -16 -12 -24 -52 -35 -165 -46 -202 -55 -208 -51 -6 4 20 130 51 247 8 33 31 51 51 41 4 -2 41 -44 82 -93z"/>
</g>
<g id="layer103" fill="#17e79f" stroke="none">
<path d="M703 958 c-14 -7 -25 -24 -29 -45 -9 -48 16 -73 73 -73 25 0 42 4 38 9 -3 5 -1 12 5 16 14 9 13 58 -2 78 -17 21 -58 29 -85 15z"/>
<path d="M1211 331 c-26 -36 -26 -48 -1 -88 16 -27 26 -33 54 -33 48 0 78 27 79 74 1 29 -5 42 -23 57 -38 29 -85 25 -109 -10z"/>
</g>
<g id="layer104" fill="#48ccd3" stroke="none">
<path d="M984 1345 c-32 -21 -25 -83 10 -102 22 -12 31 -12 54 -1 23 12 27 19 26 57 -1 59 -42 80 -90 46z"/>
<path d="M1528 1053 c-43 -49 -26 -91 40 -100 40 -5 43 -4 56 27 17 42 10 69 -21 81 -36 13 -58 11 -75 -8z"/>
<path d="M530 521 c-24 -47 -4 -101 38 -101 62 0 96 65 54 103 -26 24 -79 22 -92 -2z"/>
</g>


</svg>